<mxfile host="app.diagrams.net" modified="2022-02-26T21:14:31.362Z" agent="5.0 (Windows NT 10.0; Win64; x64) AppleWebKit/537.36 (KHTML, like Gecko) Chrome/98.0.4758.102 Safari/537.36" etag="6_B_rwNE5syLw-soCVgZ" version="16.6.1" type="github">
  <diagram id="C5RBs43oDa-KdzZeNtuy" name="Page-1">
    <mxGraphModel dx="1422" dy="794" grid="1" gridSize="10" guides="1" tooltips="1" connect="1" arrows="1" fold="1" page="1" pageScale="1" pageWidth="827" pageHeight="1169" math="0" shadow="0">
      <root>
        <mxCell id="WIyWlLk6GJQsqaUBKTNV-0" />
        <mxCell id="WIyWlLk6GJQsqaUBKTNV-1" parent="WIyWlLk6GJQsqaUBKTNV-0" />
        <mxCell id="WIyWlLk6GJQsqaUBKTNV-2" value="" style="rounded=0;html=1;jettySize=auto;orthogonalLoop=1;fontSize=11;endArrow=block;endFill=0;endSize=8;strokeWidth=1;shadow=0;labelBackgroundColor=none;edgeStyle=orthogonalEdgeStyle;" parent="WIyWlLk6GJQsqaUBKTNV-1" source="WIyWlLk6GJQsqaUBKTNV-3" edge="1">
          <mxGeometry relative="1" as="geometry">
            <mxPoint x="160" y="170" as="targetPoint" />
          </mxGeometry>
        </mxCell>
        <mxCell id="WIyWlLk6GJQsqaUBKTNV-3" value="Inicio" style="rounded=1;whiteSpace=wrap;html=1;fontSize=12;glass=0;strokeWidth=1;shadow=0;" parent="WIyWlLk6GJQsqaUBKTNV-1" vertex="1">
          <mxGeometry x="100" y="80" width="120" height="40" as="geometry" />
        </mxCell>
        <mxCell id="WIyWlLk6GJQsqaUBKTNV-11" value="Fin" style="rounded=1;whiteSpace=wrap;html=1;fontSize=12;glass=0;strokeWidth=1;shadow=0;" parent="WIyWlLk6GJQsqaUBKTNV-1" vertex="1">
          <mxGeometry x="350" y="890" width="120" height="40" as="geometry" />
        </mxCell>
        <mxCell id="yOEnmJYJ79QiOTZLBEWu-0" value="Almacenar el valor 1 en la variable numIntento" style="rounded=0;whiteSpace=wrap;html=1;" vertex="1" parent="WIyWlLk6GJQsqaUBKTNV-1">
          <mxGeometry x="110" y="170" width="120" height="60" as="geometry" />
        </mxCell>
        <mxCell id="yOEnmJYJ79QiOTZLBEWu-1" value="Almacenar en valor 5 en la variable MAX_INTENTOS" style="rounded=0;whiteSpace=wrap;html=1;" vertex="1" parent="WIyWlLk6GJQsqaUBKTNV-1">
          <mxGeometry x="100" y="280" width="120" height="60" as="geometry" />
        </mxCell>
        <mxCell id="yOEnmJYJ79QiOTZLBEWu-2" value="" style="rounded=0;html=1;jettySize=auto;orthogonalLoop=1;fontSize=11;endArrow=block;endFill=0;endSize=8;strokeWidth=1;shadow=0;labelBackgroundColor=none;edgeStyle=orthogonalEdgeStyle;" edge="1" parent="WIyWlLk6GJQsqaUBKTNV-1">
          <mxGeometry relative="1" as="geometry">
            <mxPoint x="159.5" y="230" as="sourcePoint" />
            <mxPoint x="159.5" y="280" as="targetPoint" />
          </mxGeometry>
        </mxCell>
        <mxCell id="yOEnmJYJ79QiOTZLBEWu-3" value="" style="rounded=0;html=1;jettySize=auto;orthogonalLoop=1;fontSize=11;endArrow=block;endFill=0;endSize=8;strokeWidth=1;shadow=0;labelBackgroundColor=none;edgeStyle=orthogonalEdgeStyle;" edge="1" parent="WIyWlLk6GJQsqaUBKTNV-1">
          <mxGeometry relative="1" as="geometry">
            <mxPoint x="159.5" y="340" as="sourcePoint" />
            <mxPoint x="159.5" y="390" as="targetPoint" />
          </mxGeometry>
        </mxCell>
        <mxCell id="yOEnmJYJ79QiOTZLBEWu-4" value="Escribir &quot;¿Cuál es la capital de Francia?&quot;" style="shape=parallelogram;perimeter=parallelogramPerimeter;whiteSpace=wrap;html=1;fixedSize=1;" vertex="1" parent="WIyWlLk6GJQsqaUBKTNV-1">
          <mxGeometry x="60" y="390" width="200" height="60" as="geometry" />
        </mxCell>
        <mxCell id="yOEnmJYJ79QiOTZLBEWu-5" value="" style="rounded=0;html=1;jettySize=auto;orthogonalLoop=1;fontSize=11;endArrow=block;endFill=0;endSize=8;strokeWidth=1;shadow=0;labelBackgroundColor=none;edgeStyle=orthogonalEdgeStyle;" edge="1" parent="WIyWlLk6GJQsqaUBKTNV-1">
          <mxGeometry relative="1" as="geometry">
            <mxPoint x="159.5" y="450" as="sourcePoint" />
            <mxPoint x="159.5" y="500" as="targetPoint" />
          </mxGeometry>
        </mxCell>
        <mxCell id="yOEnmJYJ79QiOTZLBEWu-6" value="Almacenar el valor introducido en la variable valorIntroducido" style="shape=parallelogram;perimeter=parallelogramPerimeter;whiteSpace=wrap;html=1;fixedSize=1;" vertex="1" parent="WIyWlLk6GJQsqaUBKTNV-1">
          <mxGeometry x="50" y="500" width="220" height="60" as="geometry" />
        </mxCell>
        <mxCell id="yOEnmJYJ79QiOTZLBEWu-7" value="¿valorIntroducido != &quot;Paris&quot;? y MAX_INTENTOS-numIntento =0?" style="rhombus;whiteSpace=wrap;html=1;" vertex="1" parent="WIyWlLk6GJQsqaUBKTNV-1">
          <mxGeometry x="50" y="610" width="220" height="150" as="geometry" />
        </mxCell>
        <mxCell id="yOEnmJYJ79QiOTZLBEWu-8" value="" style="rounded=0;html=1;jettySize=auto;orthogonalLoop=1;fontSize=11;endArrow=block;endFill=0;endSize=8;strokeWidth=1;shadow=0;labelBackgroundColor=none;edgeStyle=orthogonalEdgeStyle;" edge="1" parent="WIyWlLk6GJQsqaUBKTNV-1">
          <mxGeometry relative="1" as="geometry">
            <mxPoint x="159.5" y="560" as="sourcePoint" />
            <mxPoint x="159.5" y="610" as="targetPoint" />
          </mxGeometry>
        </mxCell>
        <mxCell id="yOEnmJYJ79QiOTZLBEWu-9" value="" style="rounded=0;html=1;jettySize=auto;orthogonalLoop=1;fontSize=11;endArrow=block;endFill=0;endSize=8;strokeWidth=1;shadow=0;labelBackgroundColor=none;edgeStyle=orthogonalEdgeStyle;exitX=1;exitY=0.5;exitDx=0;exitDy=0;" edge="1" parent="WIyWlLk6GJQsqaUBKTNV-1" source="yOEnmJYJ79QiOTZLBEWu-7">
          <mxGeometry relative="1" as="geometry">
            <mxPoint x="330" y="700" as="sourcePoint" />
            <mxPoint x="330" y="685" as="targetPoint" />
          </mxGeometry>
        </mxCell>
        <mxCell id="yOEnmJYJ79QiOTZLBEWu-11" value="" style="rounded=0;html=1;jettySize=auto;orthogonalLoop=1;fontSize=11;endArrow=block;endFill=0;endSize=8;strokeWidth=1;shadow=0;labelBackgroundColor=none;edgeStyle=orthogonalEdgeStyle;" edge="1" parent="WIyWlLk6GJQsqaUBKTNV-1">
          <mxGeometry relative="1" as="geometry">
            <mxPoint x="159.5" y="760" as="sourcePoint" />
            <mxPoint x="159.5" y="810" as="targetPoint" />
          </mxGeometry>
        </mxCell>
        <mxCell id="yOEnmJYJ79QiOTZLBEWu-12" value="Escribir &quot;Bravo.&quot;" style="shape=parallelogram;perimeter=parallelogramPerimeter;whiteSpace=wrap;html=1;fixedSize=1;" vertex="1" parent="WIyWlLk6GJQsqaUBKTNV-1">
          <mxGeometry x="350" y="780" width="120" height="60" as="geometry" />
        </mxCell>
        <mxCell id="yOEnmJYJ79QiOTZLBEWu-14" value="¿NUM_INTENTOS - numIntento!=0?" style="rhombus;whiteSpace=wrap;html=1;" vertex="1" parent="WIyWlLk6GJQsqaUBKTNV-1">
          <mxGeometry x="330" y="645" width="160" height="80" as="geometry" />
        </mxCell>
        <mxCell id="yOEnmJYJ79QiOTZLBEWu-16" value="" style="rounded=0;html=1;jettySize=auto;orthogonalLoop=1;fontSize=11;endArrow=block;endFill=0;endSize=8;strokeWidth=1;shadow=0;labelBackgroundColor=none;edgeStyle=orthogonalEdgeStyle;exitX=1;exitY=0.5;exitDx=0;exitDy=0;" edge="1" parent="WIyWlLk6GJQsqaUBKTNV-1">
          <mxGeometry relative="1" as="geometry">
            <mxPoint x="490" y="684.5" as="sourcePoint" />
            <mxPoint x="550" y="684.5" as="targetPoint" />
          </mxGeometry>
        </mxCell>
        <mxCell id="yOEnmJYJ79QiOTZLBEWu-19" value="" style="rounded=0;html=1;jettySize=auto;orthogonalLoop=1;fontSize=11;endArrow=block;endFill=0;endSize=8;strokeWidth=1;shadow=0;labelBackgroundColor=none;edgeStyle=orthogonalEdgeStyle;fontStyle=1;entryX=0.496;entryY=0;entryDx=0;entryDy=0;entryPerimeter=0;" edge="1" parent="WIyWlLk6GJQsqaUBKTNV-1" target="yOEnmJYJ79QiOTZLBEWu-12">
          <mxGeometry relative="1" as="geometry">
            <mxPoint x="409.5" y="725" as="sourcePoint" />
            <mxPoint x="409.5" y="775" as="targetPoint" />
          </mxGeometry>
        </mxCell>
        <mxCell id="yOEnmJYJ79QiOTZLBEWu-20" value="Escribir &quot;Revise sus conocimientos de geografía.&quot;" style="shape=parallelogram;perimeter=parallelogramPerimeter;whiteSpace=wrap;html=1;fixedSize=1;" vertex="1" parent="WIyWlLk6GJQsqaUBKTNV-1">
          <mxGeometry x="540" y="655" width="150" height="60" as="geometry" />
        </mxCell>
        <mxCell id="yOEnmJYJ79QiOTZLBEWu-21" value="" style="rounded=0;html=1;jettySize=auto;orthogonalLoop=1;fontSize=11;endArrow=block;endFill=0;endSize=8;strokeWidth=1;shadow=0;labelBackgroundColor=none;edgeStyle=orthogonalEdgeStyle;" edge="1" parent="WIyWlLk6GJQsqaUBKTNV-1">
          <mxGeometry relative="1" as="geometry">
            <mxPoint x="409.5" y="840" as="sourcePoint" />
            <mxPoint x="409.5" y="890" as="targetPoint" />
          </mxGeometry>
        </mxCell>
        <mxCell id="yOEnmJYJ79QiOTZLBEWu-25" value="Almacenar en la variable intentos el resultado de MAX_INTENTOS-numIntento" style="rounded=0;whiteSpace=wrap;html=1;" vertex="1" parent="WIyWlLk6GJQsqaUBKTNV-1">
          <mxGeometry x="100" y="810" width="120" height="80" as="geometry" />
        </mxCell>
        <mxCell id="yOEnmJYJ79QiOTZLBEWu-26" value="" style="rounded=0;html=1;jettySize=auto;orthogonalLoop=1;fontSize=11;endArrow=block;endFill=0;endSize=8;strokeWidth=1;shadow=0;labelBackgroundColor=none;edgeStyle=orthogonalEdgeStyle;" edge="1" parent="WIyWlLk6GJQsqaUBKTNV-1">
          <mxGeometry relative="1" as="geometry">
            <mxPoint x="159.5" y="890" as="sourcePoint" />
            <mxPoint x="159.5" y="940" as="targetPoint" />
          </mxGeometry>
        </mxCell>
        <mxCell id="yOEnmJYJ79QiOTZLBEWu-27" value="Escribir &quot;Respuesta incorrecta. Sólo faltan&quot; y intentos y &quot;intento(s).&quot;" style="shape=parallelogram;perimeter=parallelogramPerimeter;whiteSpace=wrap;html=1;fixedSize=1;" vertex="1" parent="WIyWlLk6GJQsqaUBKTNV-1">
          <mxGeometry x="80" y="940" width="160" height="60" as="geometry" />
        </mxCell>
        <mxCell id="yOEnmJYJ79QiOTZLBEWu-28" value="Incrementar de uno la variable numIntento" style="rounded=0;whiteSpace=wrap;html=1;" vertex="1" parent="WIyWlLk6GJQsqaUBKTNV-1">
          <mxGeometry x="100" y="1050" width="120" height="60" as="geometry" />
        </mxCell>
        <mxCell id="yOEnmJYJ79QiOTZLBEWu-29" value="" style="rounded=0;html=1;jettySize=auto;orthogonalLoop=1;fontSize=11;endArrow=block;endFill=0;endSize=8;strokeWidth=1;shadow=0;labelBackgroundColor=none;edgeStyle=orthogonalEdgeStyle;" edge="1" parent="WIyWlLk6GJQsqaUBKTNV-1">
          <mxGeometry relative="1" as="geometry">
            <mxPoint x="159.5" y="1000" as="sourcePoint" />
            <mxPoint x="159.5" y="1050" as="targetPoint" />
          </mxGeometry>
        </mxCell>
        <mxCell id="yOEnmJYJ79QiOTZLBEWu-30" value="" style="endArrow=none;html=1;rounded=0;exitX=0.5;exitY=1;exitDx=0;exitDy=0;" edge="1" parent="WIyWlLk6GJQsqaUBKTNV-1" source="yOEnmJYJ79QiOTZLBEWu-28">
          <mxGeometry width="50" height="50" relative="1" as="geometry">
            <mxPoint x="390" y="890" as="sourcePoint" />
            <mxPoint x="40" y="420" as="targetPoint" />
            <Array as="points">
              <mxPoint x="160" y="1140" />
              <mxPoint x="40" y="1140" />
              <mxPoint x="40" y="780" />
              <mxPoint x="40" y="420" />
            </Array>
          </mxGeometry>
        </mxCell>
        <mxCell id="yOEnmJYJ79QiOTZLBEWu-34" value="" style="rounded=0;html=1;jettySize=auto;orthogonalLoop=1;fontSize=11;endArrow=block;endFill=0;endSize=8;strokeWidth=1;shadow=0;labelBackgroundColor=none;edgeStyle=orthogonalEdgeStyle;" edge="1" parent="WIyWlLk6GJQsqaUBKTNV-1">
          <mxGeometry relative="1" as="geometry">
            <mxPoint x="40" y="420" as="sourcePoint" />
            <mxPoint x="70" y="419.5" as="targetPoint" />
          </mxGeometry>
        </mxCell>
        <mxCell id="yOEnmJYJ79QiOTZLBEWu-35" value="" style="rounded=0;html=1;jettySize=auto;orthogonalLoop=1;fontSize=11;endArrow=block;endFill=0;endSize=8;strokeWidth=1;shadow=0;labelBackgroundColor=none;edgeStyle=orthogonalEdgeStyle;fontStyle=1;entryX=0.496;entryY=0;entryDx=0;entryDy=0;entryPerimeter=0;" edge="1" parent="WIyWlLk6GJQsqaUBKTNV-1">
          <mxGeometry relative="1" as="geometry">
            <mxPoint x="614.5" y="715" as="sourcePoint" />
            <mxPoint x="614.52" y="770" as="targetPoint" />
          </mxGeometry>
        </mxCell>
        <mxCell id="yOEnmJYJ79QiOTZLBEWu-36" value="Fin" style="rounded=1;whiteSpace=wrap;html=1;fontSize=12;glass=0;strokeWidth=1;shadow=0;" vertex="1" parent="WIyWlLk6GJQsqaUBKTNV-1">
          <mxGeometry x="555" y="770" width="120" height="40" as="geometry" />
        </mxCell>
        <mxCell id="yOEnmJYJ79QiOTZLBEWu-37" value="&lt;b&gt;Verdadero&lt;/b&gt;" style="text;html=1;strokeColor=none;fillColor=none;align=center;verticalAlign=middle;whiteSpace=wrap;rounded=0;" vertex="1" parent="WIyWlLk6GJQsqaUBKTNV-1">
          <mxGeometry x="90" y="760" width="60" height="40" as="geometry" />
        </mxCell>
        <mxCell id="yOEnmJYJ79QiOTZLBEWu-38" value="&lt;b style=&quot;color: rgb(0, 0, 0); font-family: helvetica; font-size: 12px; font-style: normal; letter-spacing: normal; text-align: center; text-indent: 0px; text-transform: none; word-spacing: 0px; background-color: rgb(248, 249, 250);&quot;&gt;Verdadero&lt;/b&gt;" style="text;whiteSpace=wrap;html=1;" vertex="1" parent="WIyWlLk6GJQsqaUBKTNV-1">
          <mxGeometry x="340" y="730" width="80" height="30" as="geometry" />
        </mxCell>
        <mxCell id="yOEnmJYJ79QiOTZLBEWu-39" value="&lt;b&gt;Falso&lt;/b&gt;" style="text;html=1;strokeColor=none;fillColor=none;align=center;verticalAlign=middle;whiteSpace=wrap;rounded=0;" vertex="1" parent="WIyWlLk6GJQsqaUBKTNV-1">
          <mxGeometry x="260" y="645" width="60" height="30" as="geometry" />
        </mxCell>
        <mxCell id="yOEnmJYJ79QiOTZLBEWu-40" value="&lt;b style=&quot;color: rgb(0, 0, 0); font-family: helvetica; font-size: 12px; font-style: normal; letter-spacing: normal; text-align: center; text-indent: 0px; text-transform: none; word-spacing: 0px; background-color: rgb(248, 249, 250);&quot;&gt;Falso&lt;/b&gt;" style="text;whiteSpace=wrap;html=1;" vertex="1" parent="WIyWlLk6GJQsqaUBKTNV-1">
          <mxGeometry x="490" y="655" width="60" height="30" as="geometry" />
        </mxCell>
      </root>
    </mxGraphModel>
  </diagram>
</mxfile>
